<?xml version="1.0" encoding="utf-8"?>
<!-- Generator: Adobe Illustrator 23.0.2, SVG Export Plug-In . SVG Version: 6.00 Build 0)  -->
<svg version="1.1" id="Layer_1" xmlns="http://www.w3.org/2000/svg" xmlns:xlink="http://www.w3.org/1999/xlink" x="0px" y="0px"
	 viewBox="0 0 240.945 294.236" enable-background="new 0 0 240.945 294.236" xml:space="preserve">
<g>
	<path fill="#FFFFFF" d="M119.756,0.054C53.943,0.441,0.709,53.912,0.709,119.816c0,19.79,4.804,38.457,13.303,54.904
		c28.666-17.051,55.544-44.102,75.603-78.844c18.253-31.615,28.175-64.94,30.141-95.815L119.756,0.054z"/>
	<path fill="#FFFFFF" d="M140.592,153.199l0.09,84.674c36.018-6.122,66.556-28.32,83.974-58.957
		c-23.815-13.964-52.548-23.094-84.03-25.714L140.592,153.199z"/>
	<g>
		<path fill="#FFFFFF" d="M100.675,237.941l-0.204-84.552l-0.005-0.006c-31.271,2.919-60.013,12.171-83.959,25.891
			C34.025,209.839,64.621,231.943,100.675,237.941z"/>
	</g>
	<path fill="#FFFFFF" d="M122.213,0.074c1.968,30.871,11.89,64.191,30.14,95.802c19.876,34.427,46.448,61.306,74.821,78.382
		c8.351-16.334,13.062-34.838,13.062-54.442c0-65.563-52.683-118.822-118.026-119.751L122.213,0.074z"/>
	<g>
		<path fill="#FFFFFF" d="M48.177,287.423H29.429l-2.605,6.126H9.963l20.086-37.112h18.013l20.082,37.112H50.851L48.177,287.423z
			 M44.751,279.398l-5.898-13.341l-5.837,13.341H44.751z"/>
		<path fill="#FFFFFF" d="M64.498,256.437h50.197v9.164H97.853v27.948H81.34v-27.948H64.498V256.437z"/>
		<path fill="#FFFFFF" d="M155.195,278.36l15.201,0.085l-0.729,2.952c-0.972,2.819-2.503,5.173-4.593,7.063
			c-2.09,1.891-4.684,3.316-7.783,4.278c-3.099,0.962-7.042,1.443-11.83,1.443c-5.809,0-10.553-0.586-14.235-1.758
			c-3.682-1.172-6.859-3.233-9.532-6.185c-2.674-2.952-4.01-6.73-4.01-11.334c0-6.139,2.351-10.857,7.054-14.155
			c4.703-3.297,11.356-4.946,19.959-4.946c6.731,0,12.023,0.945,15.875,2.835c3.851,1.891,6.713,4.793,8.585,8.708l0.557,2.246
			l-15.138,0.007c-0.51-1.131-1.045-1.957-1.604-2.481c-0.923-0.877-2.054-1.552-3.39-2.025c-1.337-0.472-2.831-0.709-4.484-0.709
			c-3.743,0-6.611,1.045-8.603,3.136c-1.507,1.551-2.261,3.987-2.261,7.307c0,4.113,0.899,6.933,2.698,8.458
			c1.798,1.525,4.325,2.288,7.582,2.288c3.159,0,5.547-0.616,7.163-1.848C153.293,282.495,154.466,280.706,155.195,278.36z"/>
		<path fill="#FFFFFF" d="M175.608,275.019c0-6.058,2.43-10.776,7.291-14.151c4.86-3.375,11.629-5.063,20.305-5.063
			c8.895,0,15.748,1.658,20.56,4.974c4.812,3.316,7.218,7.962,7.218,13.936c0,4.338-1.051,7.894-3.153,10.67
			c-2.102,2.777-5.14,4.936-9.113,6.481c-3.974,1.544-8.926,2.316-14.855,2.316c-6.027,0-11.015-0.666-14.964-2
			c-3.949-1.333-7.151-3.443-9.605-6.329C176.835,282.967,175.608,279.356,175.608,275.019z M192.122,275.069
			c0,3.747,1.002,6.439,3.007,8.075c2.005,1.637,4.733,2.456,8.184,2.456c3.548,0,6.294-0.801,8.238-2.405
			c1.944-1.603,2.916-4.481,2.916-8.632c0-3.493-1.015-6.046-3.044-7.658c-2.03-1.612-4.782-2.418-8.257-2.418
			c-3.33,0-6.003,0.819-8.02,2.456C193.13,268.58,192.122,271.289,192.122,275.069z"/>
	</g>
</g>
</svg>
